<?xml version="1.0" encoding="UTF-8"?> <!-- Generator: Adobe Illustrator 16.0.0, SVG Export Plug-In . SVG Version: 6.00 Build 0) --> <svg xmlns="http://www.w3.org/2000/svg" xmlns:xlink="http://www.w3.org/1999/xlink" version="1.1" id="Layer_1" x="0px" y="0px" width="2001.201px" height="1428.143px" viewBox="0 0 2001.201 1428.143" xml:space="preserve"> <rect x="-503.72" y="-276.746" fill="#FFFFFF" width="3000" height="2000"></rect> <g> <path fill-rule="evenodd" clip-rule="evenodd" fill="#E0E8F5" d="M1798.489,198.781c-16.298,0-29.498-13.219-29.498-29.517 c0-16.289,13.2-29.508,29.498-29.508c16.316,0,29.518,13.219,29.518,29.508C1828.006,185.562,1814.805,198.781,1798.489,198.781 L1798.489,198.781z M545.627,906.195H387.994c-84.846,0-154.278,69.413-154.278,154.24l0,0 c0,84.864,69.432,154.297,154.278,154.297h1332.988c137.371,0,249.798-112.408,249.798-249.78v-0.036 c0-137.391-112.427-249.78-249.798-249.78l0,0c-58.095,0-105.624-47.529-105.624-105.624l0,0 c0-58.094,47.529-105.624,105.624-105.624h127.12c60.398,0,109.791-49.429,109.791-109.809l0,0 c0-60.398-49.393-109.809-109.791-109.809h-160.749c-23.507,0-42.736-19.239-42.736-42.745l0,0 c0-23.525,19.229-42.746,42.736-42.746h28.337c16.225,0,29.499-13.293,29.499-29.517l0,0c0-16.215-13.274-29.508-29.499-29.508 h-106.213c0,0-40.579,0-79.721,0c-39.141,0-43.51,46.267-142.423,46.267c-152.913,0-76.456,0-229.37,0 c-21.146,0-38.478,17.303-38.478,38.505l0,0c0,21.156,17.331,38.486,38.478,38.486h36.984c30.678,0,55.771,25.092,55.771,55.808 l0,0c0,30.679-25.093,55.771-55.771,55.771h-111.266c-150.259,0-171.498,39.251-197.807,117.368 c-26.309,78.079-162.999,84.384-162.999,84.384H536.003c-46.239,0-84.053,37.832-84.053,84.071l0,0 c0,46.239,37.813,84.071,84.053,84.071h9.624c44.487,0,80.863,36.394,80.863,80.845l0,0 C626.49,869.801,590.115,906.195,545.627,906.195L545.627,906.195z"></path> <path fill-rule="evenodd" clip-rule="evenodd" fill="#C4D1EB" d="M1176.161,1226.938c247.567,0,448.231,16.353,448.231,36.522 s-200.664,36.523-448.231,36.523c-247.531,0-448.195-16.354-448.195-36.523S928.63,1226.938,1176.161,1226.938z"></path> <path fill-rule="evenodd" clip-rule="evenodd" fill="#F48661" d="M1397.713,689.066c-6.103,5.328-12.776,7.522-20.575,5.9 C1384.458,700.479,1394.58,696.257,1397.713,689.066z"></path> <path fill-rule="evenodd" clip-rule="evenodd" fill="#F9AF79" d="M1370.224,1217.922c1.162-8.26-1.438-22.419-7.854-44.599 c12.758,0.037,23.488-5.623,36.541-5.438c3.577,20.87,9.09,55.088,9.09,55.088l0.608,27.065l-90.911,0.7 c0,0,0.756,0.406,27.563-16.537C1347.234,1232.947,1369.119,1225.868,1370.224,1217.922z"></path> <path fill-rule="evenodd" clip-rule="evenodd" fill="#25529B" d="M1409.015,1257.007h-93.806c-3.503-0.331-4.332-3.152-3.134-4.886 c2.507-3.613,20.796-12.241,33.112-17.957c21.57,2.268,59.494-6.6,62.905-11.597 C1413.993,1239.105,1410.951,1256.564,1409.015,1257.007z"></path> <path fill-rule="evenodd" clip-rule="evenodd" fill="#F9AF79" d="M1483.462,1217.922c1.144-8.26,3.098-18.566,0.222-46.037 c12.795,0,24.944-2.378,38.016-2.193c0,21.441-0.442,53.281-0.442,53.281l0.554,27.065l-90.893,0.7c0,0,0.773,0.406,27.544-16.537 C1460.454,1232.947,1482.356,1225.868,1483.462,1217.922z"></path> <path fill-rule="evenodd" clip-rule="evenodd" fill="#25529B" d="M1522.253,1257.007h-93.843c-3.466-0.331-4.296-3.152-3.079-4.886 c2.452-3.613,20.778-12.241,33.075-17.957c21.59,2.268,59.495-6.6,62.888-11.597 C1527.231,1239.105,1524.208,1256.564,1522.253,1257.007z"></path> <path fill-rule="evenodd" clip-rule="evenodd" fill="#F9AF79" d="M1417.404,432.981l-34.2-36.062c0,0-36.578,20.133-79.24,39.344 c-11.763-20.391-30.882-87.574-31.896-90.745c-1.032-3.245,22.382-43.547,17.183-44.58c-5.254-0.996-12.076,21.534-17.625,19.266 c-5.55-2.305-19.801-54.609-23.156-51.743c-6.232,5.338,7.54,32.513,4.222,34.504c-3.282,1.991-11.634-30.125-17.976-28.771 c-6.379,1.374,10.693,29.231,8.85,31.923c-1.881,2.673-19.765-23.47-23.451-17.386c-1.991,3.245,16.482,22.75,12.684,24.944 c-3.798,2.157-20.464-10.103-22.419-6.121c-1.991,3.964,15.524,8.13,20.392,18.197c4.849,10.03,13.717,13.957,16.666,32.965 c2.913,19.026,10.952,120.705,31.675,128.872C1297.215,494.708,1417.404,432.981,1417.404,432.981z"></path> <path fill-rule="evenodd" clip-rule="evenodd" fill="#3C0A59" d="M1395.317,627.543l27.71,15.468l56.361,86.173l-100.775,237.225 c0,0,11.376,35.693,15.063,53.503c3.853,18.64,13.348,178.706,13.348,178.706l-43.013,0.737c0,0-40.837-170.409-47.751-225.72 c-8.389-67.164,42.755-227.084,42.755-227.084c9.55-32.651,30.089-99.797,30.089-99.797S1394.119,630.401,1395.317,627.543z"></path> <path fill-rule="evenodd" clip-rule="evenodd" fill="#3C0A59" d="M1491.814,595.187c0,0-2.876,20.244,8.61,43.363 c6.969,14.123,19.063,25.185,27.729,42.423c16.371,32.688,25.221,79.111,19.101,108.942c0,0-33.831,129.167-32.485,176.383 c0.479,17.423,6.452,48.82,10.287,70.005c3.355,18.75,4.518,160.158,4.518,160.158l-48.046-1.438l-36.745-228.135l-15.56-202.767 l-33.905-136.579L1491.814,595.187z"></path> <path fill-rule="evenodd" clip-rule="evenodd" fill="#25529B" d="M1390.136,297.491c4.24-20.041,8.628-40.183,28.559-54.609 c16.113-11.68,33.425-15.035,51.788-8.379c52.065,18.888,24.078,60.205,88.662,104.194c20.059,13.68,27.673,18.455,42.054,36.689 c20.17,25.517,31.194,59.735,21.055,87.943c-20.944,58.241-85.878,75.093-119.838,62.74 c-63.238-22.991-115.894-103.19-119.396-125.056C1379.258,377.58,1387.389,310.415,1390.136,297.491z"></path> <path fill-rule="evenodd" clip-rule="evenodd" fill="#6E2B90" d="M1380.033,455.659c-15.284,7.042-43.013,17.662-43.013,17.662 l-15.745-49.853c89.104-50.701,82.099-42.497,148.95-41.52c53.466,0.774,75.866-9.439,121.866,114.787 c0,0-35.012,15.727-47.567,20.796c-5.401-15.376-15.136-45.999-20.833-28.54c-8.591,26.364-14.859,53.005-19.101,80.42 c-2.654,16.243-8.48,37.04-5.42,53.577c0,0-36.394,7.503-64.178,8.739h-0.259c-13.422-0.369-27.157-1.549-39.417-4.185 c0,0-5.439-115.21-8.352-120.041c-3.245-5.292-16.852-22.493-5.273-48.23C1383.757,454.718,1383.204,454.202,1380.033,455.659z"></path> <path fill-rule="evenodd" clip-rule="evenodd" fill="#F9AF79" d="M1446.958,655.623c-0.663,0.11-3.503-0.258-5.826-0.221 c-3.207,0.074-6.01,0.553-6.01,0.553s-1.254-1.106-3.669-2.212c-1.014-0.461-2.637-0.626-3.761-1.143 c-1.162-0.553-2.121-1.53-3.208-2.009c-2.84-1.235-5.439-1.53-6.306-0.019c-0.737,1.217,15.063,10.877,15.063,10.877 c14.639,0.074,29.941,7.559,63.828-14.565c19.34-8.444,113.293-54.867,115.191-64.971c1.07-5.697-13.348-49.631-25.129-82.983 c-9.089,4.075-28.41,12.648-39.215,17.183c9.919,21.036,21.627,48.875,20.392,52.305c-0.332,0.885-1.493,2.507-65.008,44.082 c-1.622,1.033-3.245,2.12-4.904,3.189c-4.499,2.95-9.273,6.047-14.344,9.366l-18.104-1.899c0,0-28.688,1.973-29.572,5.255 c-0.369,1.493,2.01,2.23,4.94,2.673h0.093c0.405,0.037,0.848,0.092,1.309,0.129l0,0c3.189,0.406,6.508,0.479,7.338,0.737 c0.885,0.332,2.729,1.051,4.314,2.12c-17.921,7.319-16.538,4.702-22.456,4.333c-1.475-0.11-3.079,0.332-4.499,0.222 c-2.378-0.222-4.313-1.66-6.157-1.77c-2.729-0.147-4.941,1.106-5.421,1.623c-0.645,0.664,0.554,1.567,2.84,2.599 c13.809,5.992,25.258,3.706,28.945,4.591c2.434,0.59-2.064,1.53-9.09,0.774c-1.751-0.184-4.056,0.442-6.36-0.092 c-1.549-0.35-2.968-1.346-4.479-1.714c-1.42-0.351-2.84-0.332-4.038-0.535c-1.512-0.295-3.688-1.494-4.904-1.604 c-4.591-0.553-6.803,0.295-7.338,0.682c-1.069,0.958,19.765,8.942,19.765,8.942s14.381,2.083,17.588,2.083 C1448.764,654.203,1450.682,655.069,1446.958,655.623z"></path> <path fill-rule="evenodd" clip-rule="evenodd" fill="#F9AF79" d="M1463.662,332.797c0,0,4.13,32.891,6.489,44.303 c2.526,11.928,6.306,49.613-18.492,55.734c-24.797,6.103-17.108-40.966-17.533-53.134c-0.368-12.15-7.411-54.499-7.411-54.499 L1463.662,332.797z"></path> <path fill-rule="evenodd" clip-rule="evenodd" fill="#F27458" d="M1465.007,343.287c-0.222,0.166-0.479,0.313-0.719,0.461 c-13.717,7.854-25.627,6.619-34.588,0.517c-1.585-10.527-2.986-19.064-2.986-19.064l36.947,7.596 C1463.662,332.797,1464.214,337.185,1465.007,343.287z"></path> <path fill-rule="evenodd" clip-rule="evenodd" fill="#F9AF79" d="M1456.213,247.112c0,0,14.527,4.075,22.916,18.501 c8.353,14.417,12.537,55.826-18.271,73.525c-30.826,17.662-52.71-10.657-51.77-37.131 C1410.01,275.533,1417.385,240.457,1456.213,247.112z"></path> <path fill-rule="evenodd" clip-rule="evenodd" fill="#F9AF79" d="M1402.249,290.632c-0.331,6.876,2.618,12.629,6.601,12.813 c3.964,0.221,7.467-5.199,7.799-12.095c0.369-6.895-2.581-12.647-6.563-12.832C1406.102,278.335,1402.599,283.755,1402.249,290.632 z"></path> <path fill-rule="evenodd" clip-rule="evenodd" fill="#25529B" d="M1451.862,246.016c0,0,16.63,43.344,32.891,47.954 c16.262,4.609,14.953,25.922,14.953,25.922s2.102-49.253-12.777-61.33C1472.069,246.495,1451.862,246.016,1451.862,246.016z"></path> <path fill-rule="evenodd" clip-rule="evenodd" fill="#F9AF79" d="M1477.784,302.45c-2.525,6.785-0.885,13.643,3.669,15.339 c4.535,1.696,10.232-2.36,12.74-9.145c2.544-6.784,0.885-13.68-3.651-15.376C1486.006,291.572,1480.292,295.666,1477.784,302.45z"></path> <path fill-rule="evenodd" clip-rule="evenodd" fill="#C4D1EB" d="M737.848,319.117H104.42 c4.554-19.229,21.811-33.555,42.459-33.555c0.978,0,1.991,0.037,2.95,0.111c10.029-24.493,34.071-41.75,62.168-41.75 c12.316,0,23.802,3.319,33.702,9.08c12.095-39.823,49.079-68.814,92.847-68.814c8.905,0,17.533,1.208,25.719,3.447 c21.184-46.783,68.308-79.305,122.991-79.305c64.878,0,119.064,45.788,132.006,106.804c1.088-0.037,2.176-0.074,3.263-0.074 c41.575,0,75.867,31.065,80.937,71.257C720.407,289.489,733.92,302.45,737.848,319.117z"></path> <path fill-rule="evenodd" clip-rule="evenodd" fill="#E0E8F5" d="M1001.934,236.392H368.488 c4.536-19.239,21.829-33.555,42.46-33.555c0.977,0,2.009,0.037,2.968,0.11c10.011-24.502,34.071-41.759,62.168-41.759 c12.278,0,23.783,3.319,33.702,9.08c12.076-39.823,49.06-68.815,92.847-68.815c8.887,0,17.533,1.208,25.701,3.466 c21.202-46.774,68.308-79.324,123.009-79.324c64.86,0,119.064,45.788,132.006,106.813c1.069-0.037,2.157-0.074,3.263-0.074 c41.575,0,75.867,31.075,80.937,71.249C984.493,206.755,997.989,219.725,1001.934,236.392z"></path> <path fill-rule="evenodd" clip-rule="evenodd" fill="#B0C2E4" d="M184.159,733.684c-18.105,17.09-26.328,37.555-24.668,61.412 c42.828,29.148,64.971,56.472,66.427,81.933c-50.313-44.783-88.109-44.653-105.126-17.165 c12.556,15.192,21.35,67.645,18.308,91.777c-5.365,42.607,6.25,80.863,38.459,95.226c7.393,16.575,15.155,25.276,23.304,26.198 c-7.817,47.732-14.38,96.221-19.727,145.392c5.458,2.803,13.238,2.508,17.386-0.295c1.641-19.174,2.876-32.706,4.13-41.759 c3.3-35.712,7.024-70.226,11.154-103.596c1.973-0.221,3.945-0.553,5.899-0.995c37.685-7.892,23.249-31.397,57.707-38.478 c21.202-4.314,40.487-22.253,45.299-38.237c-22.069-6.97-49.871-14.418-78.08-9.146c14.676-20.557,44.414-19.026,84.791-14.029 c15.247-29.684,36.91-26.955,28.337-73.342c-11.984-64.676,30.328-82.577,16.077-160.417c-20.796-7.835-48.304-6.932-82.559,2.766 c14.51-21.479,42.091-30.402,82.725-26.696c-8.462-22.788-8.389-52.268-4.351-64.842c-15.1-10.914-30.347-10.841-45.76,0.185 c6.896-11.818,15.819-18.566,26.789-20.28c-0.553-10.104-4.904-21.423-13.09-33.96c-13.496,0.313-28.485,3.319-44.93,8.997 c7.485,4.923,9.919,13.828,7.282,26.641c-8.997-10.601-22.345-14.141-39.934-10.601c-3.724,46.202-44.672,64.934-45.373,84.864 c24.115,21.221,38.237,44.377,42.349,69.47C232.444,753.632,208.145,739.951,184.159,733.684z"></path> <path fill-rule="evenodd" clip-rule="evenodd" fill="#9DB2D9" d="M181.135,1218.456c5.347-49.171,11.91-97.659,19.727-145.392 c27.803-180.365,76.365-366.667,118.64-444.618c-56.398,132.947-95.373,315.598-116.852,547.956 c-1.254,9.053-2.489,22.585-4.13,41.759C194.373,1220.964,186.592,1221.259,181.135,1218.456z"></path> <path fill-rule="evenodd" clip-rule="evenodd" fill="#C4D1EB" d="M252.706,617.348c17.478,22.309,23.249,46.756,17.33,73.323 c-53.171,25.535-82.744,52.526-88.717,80.937c64.251-41.833,106.785-35.27,121.258-1.42 c-16.722,14.952-35.528,72.512-36.209,100.185c-1.217,48.913-20.797,90.026-59.532,100.738 c-11.117,17.386-21.331,25.848-30.642,25.479c0.664,55.089-0.185,110.785-2.544,167.091c-6.6,2.231-15.321,0.535-19.524-3.3 c1.401-21.866,2.341-37.297,2.452-47.714c2.36-40.782,4.056-80.273,5.088-118.529c-2.212-0.627-4.369-1.327-6.508-2.12 c-41.059-15.303-20.815-39.325-58.426-53.135c-23.138-8.518-41.814-31.95-44.469-50.812c26.033-4.093,58.592-7.706,89.417,3.024 c-12.979-25.664-46.737-28.982-93.068-30.273c-12.113-35.97-36.947-36.578-19.396-87.353c24.465-70.76-20.114-98.157,9.145-183.353 c24.761-5.328,55.605,0.405,92.534,17.164c-12.703-26.696-42.238-41.39-88.625-44.119c13.385-24.244,18.326-57.43,15.929-72.253 c18.842-9.753,36.007-7.08,51.512,7.965c-5.771-14.491-14.676-23.617-26.733-27.397c2.323-11.32,9.145-23.304,20.483-36.006 c15.173,2.655,31.545,8.573,49.097,17.754c-9.292,4.295-13.533,13.901-12.721,28.779c11.928-10.398,27.544-12.113,46.755-5.181 c-3.688,52.692,39.251,80.752,36.615,103.282c-30.734,19.801-50.59,43.492-59.477,71.018 C194.944,631.581,224.608,620.316,252.706,617.348z"></path> <path fill-rule="evenodd" clip-rule="evenodd" fill="#B0C2E4" d="M173.649,1163.681c2.36-56.306,3.208-112.002,2.544-167.091 c-0.627-207.781-23.636-425.813-57.965-520.762c40.893,159.293,53.688,371.572,38.348,636.839 c-0.111,10.417-1.051,25.848-2.452,47.714C158.329,1164.216,167.049,1165.912,173.649,1163.681z"></path> <path fill-rule="evenodd" clip-rule="evenodd" fill="#C4D1EB" d="M197.249,1196.793c-77.36,0-140.063,14.123-140.063,31.527 c0,17.385,62.703,31.508,140.063,31.508c77.36,0,140.082-14.123,140.082-31.508C337.33,1210.916,274.608,1196.793,197.249,1196.793 z"></path> <path fill-rule="evenodd" clip-rule="evenodd" fill="#B0C2E4" d="M125.641,1104.813h136.284c6.121,0,11.117,5.033,11.117,11.154 v31.287c0,6.121-4.996,11.099-11.117,11.099H125.641c-6.121,0-11.118-4.978-11.118-11.099v-31.287 C114.523,1109.846,119.52,1104.813,125.641,1104.813z"></path> <polygon fill-rule="evenodd" clip-rule="evenodd" fill="#B0C2E4" points="126.857,1158.353 260.708,1158.353 247.543,1227.564 140.021,1227.564 "></polygon> <polygon fill-rule="evenodd" clip-rule="evenodd" fill="#9DB2D9" points="260.708,1158.353 126.857,1158.353 129.254,1170.908 258.311,1170.908 "></polygon> <path fill-rule="evenodd" clip-rule="evenodd" fill="#F9AF79" d="M1059.899,694.044c-16.169-4.536-16.557-1.623-18.621-2.286 c-2.434-0.738-22.197-26.955-22.197-26.955s-58.905-76.881-61.911-81.158l-19.358-100.037l-55.034,0.074 c0,0,24.115,108.076,26.401,113.367c2.305,5.383,95.336,99.023,103.227,107.522c0,0,5.181,14.012,8.739,22.584 c3.577,8.592,11.063,14.934,12.463,17.109c0.203,0.351,5.384,7.504,14.308,14.418c7.669,5.973,3.558-3.374,3.558-3.374 s-11.965-13.735-10.582-14.584c1.051-0.663,7.098,7.265,15.542,13.92c2.157,1.752,4.313,3.448,6.305,4.96 c5.218,4.056,9.587,1.861,4.886-3.282c-1.641-1.862-4.443-4.812-6.821-6.563c-2.525-1.954-4.148-4.554-5.992-6.489 c-3.669-3.982-6.397-6.748-6.12-6.822c0.331-0.11,0.221-1.438,2.6,0.332c2.839,2.102,7.725,8.002,12.186,10.693 c2.545,1.622,7.615,5.236,7.615,5.236s8.831,3.871,9.311,3.466c2.47-2.471-2.6-6.858-6.361-8.536 c-1.715-2.268-7.172-5.881-7.172-5.881s-9.07-9.956-7.521-11.395c0.663-0.59,7.079,4.813,14.27,8.997 c6.674,3.909,14.215,6.748,15.34,5.513c1.917-2.12-4.96-7.338-4.96-7.338s-5.033-3.3-6.601-4.554 c-1.861-1.438-6.987-6.305-6.987-6.305s-16.962-17.626-15.395-18.806c1.567-1.254,6.784-2.95,8.241-2.286 c1.493,0.7,3.355,3.466,4.849,4.129c1.493,0.756,4.148,0.332,5.365-1.419c1.198-1.789-4.351-8.02-4.351-8.02 S1064.582,695.298,1059.899,694.044z"></path> <path fill-rule="evenodd" clip-rule="evenodd" fill="#F9AF79" d="M973.708,1197.918l-1.641,34.624 c-0.664,4.479-3.393,15.376-3.355,19.321c0.184,15.008,66.63-13.422,51.604-19.911c-1.346-0.572-8.499-5.015-8.996-10.196 c-0.774-7.835-2.674-23.653-2.674-23.653L973.708,1197.918z"></path> <path fill-rule="evenodd" clip-rule="evenodd" fill="#25529B" d="M1020.15,1231.805c0,0-15.635,4.812-23.654,5.991 c-7.983,1.235-18.677-8.259-24.318-5.659c-6.231,2.931-5.291,31.176-5.291,31.176s83.665,4.148,107.209-3.779 C1083.424,1256.491,1052.266,1242.147,1020.15,1231.805z"></path> <path fill-rule="evenodd" clip-rule="evenodd" fill="#F9AF79" d="M826.712,1202.729l-1.623,34.735 c-0.682,4.351-3.392,15.247-3.355,19.284c0.147,15.008,66.593-13.495,51.585-19.985c-1.364-0.59-10.638-8.443-11.136-13.459 c-0.774-7.928-0.553-20.428-0.553-20.428L826.712,1202.729z"></path> <path fill-rule="evenodd" clip-rule="evenodd" fill="#25529B" d="M873.154,1236.616c0,0-15.616,4.812-23.654,6.048 c-8.001,1.18-18.695-8.315-24.336-5.716c-6.213,2.932-6.195,28.816-6.195,28.816s89.492,5.55,110.436-0.756 C938.844,1262.206,905.29,1247.07,873.154,1236.616z"></path> <path fill-rule="evenodd" clip-rule="evenodd" fill="#3C0A59" d="M927.339,702.304l28.355,11.874l62.242,282.818l-0.221,212.556 l-47.567,1.513c0,0-24.042-185.565-24.189-199.982c-0.147-14.418-105.089-251.033-105.089-251.033L927.339,702.304z"></path> <path fill-rule="evenodd" clip-rule="evenodd" fill="#3C0A59" d="M905.713,718.141c0,0-18.529,218.53-18.16,255.347 c0.369,36.855-14.362,243.069-14.362,243.069l-47.695,0.184c0,0-4.075-62.702-10.14-155.089c-0.959-14.491,0.59-43.64-0.608-58.646 c-8.537-107.634-24.208-208.924-17.644-249.189c1.069-6.527,3.023-23.452,7.098-27.766 C835.101,693.455,905.713,718.141,905.713,718.141z"></path> <path fill-rule="evenodd" clip-rule="evenodd" fill="#8853AD" d="M962.148,545.205l-57.78-3.281c0,0-3.355-51.567-3.614-76.181 c-0.332-29.849-9.845-73.728-6.305-72.99c10.029,2.286,27.36,11.228,35.472,22.345 C958.018,453.373,962.148,545.205,962.148,545.205z"></path> <path fill-rule="evenodd" clip-rule="evenodd" fill="#6E2B90" d="M823.836,392.347c0,0-32.873,4.959-41.482,11.375 c-9.661,7.246-20.317,23.433-20.317,23.433s42.349,190.524,42.754,222.733c0.313,24.779-7.873,85.97-7.873,85.97 s122.161,6.453,168.253-12.315c0,0-15.376-72.401-15.561-91.52c-0.203-19.045-19.432-192.257-23.543-204.296 c-3.706-10.933-10.509-30.586-32.854-35.306C870.85,387.793,823.836,392.347,823.836,392.347z"></path> <path fill-rule="evenodd" clip-rule="evenodd" fill="#F9AF79" d="M832.28,340.854l-7.596,53.43c0,0,30.402,63.219,48.102,57.467 c14.841-4.72,5.107-60.841,5.107-60.841s-8.426-30.089-6.14-45.244C874.021,330.566,832.28,340.854,832.28,340.854z"></path> <path fill-rule="evenodd" clip-rule="evenodd" fill="#F27458" d="M871.753,345.666c2.268-15.1-39.473-4.812-39.473-4.812 l-0.608,4.443c1.235,2.987,2.765,5.42,4.59,7.338c9.458,9.956,24.115,15.782,36.781,16.113 C871.679,360.654,870.813,351.897,871.753,345.666z"></path> <path fill-rule="evenodd" clip-rule="evenodd" fill="#F9AF79" d="M824.647,265.503c-1.18-0.415-8.85,60.841,7.061,77.453 c15.911,16.685,46.645,21.921,57.522,8.518c12.039-14.75,10.73-80.485-13.92-97.594 C850.643,236.853,824.647,265.503,824.647,265.503z"></path> <path fill-rule="evenodd" clip-rule="evenodd" fill="#25529B" d="M865.65,221.006c-18.879,3.964-31.029,15.606-35.472,20.575 c-8.591,1.097-20.207,5.9-32.061,25.848c-14.583,24.548-3.355,51.429,14.048,64.556c17.386,13.09,17.331,28.485,17.331,28.485 l2.618-8.094c1.936-5.974,2.71-12.371,1.973-18.603c-0.442-3.798-1.291-7.909-2.913-11.228c-4.24-8.831,8.776-14.823,12.353-22.234 c2.766-5.752,2.784-18.695,7.117-28.079l5.236-7.218c0,0,12.168-9.633,24.152-7.098 C892.052,260.534,889.876,215.779,865.65,221.006z"></path> <path fill-rule="evenodd" clip-rule="evenodd" fill="#F9AF79" d="M842.844,311.521c0.203,7.412-3.152,13.569-7.485,13.717 c-4.333,0.111-8.02-5.863-8.204-13.311c-0.221-7.485,3.134-13.644,7.467-13.717S842.642,304.017,842.844,311.521z"></path> <path fill-rule="evenodd" clip-rule="evenodd" fill="#F9AF79" d="M774.205,417.439c11.081-0.387,21.608,72.585,14.676,79.812 c-6.932,7.264-7.356,97.272-7.356,97.272l104.425-3.724l0.019,0.074c2.028-1.42,23.746-16.335,26.844-19.543 c3.245-3.429,19.211-1.917,23.488,2.692c4.259,4.572-8.112,2.378-11.836,4.904c-3.724,2.618,1.641,7.412,1.641,7.412 s26.494,3.54,31.619-1.917c5.088-5.586,18.787-15.007,20.723-9.55c0.996,2.876-6.047,11.467-9.993,15.1 c4.941-3.798,10.896-7.836,12.943-7.172c3.761,1.253,2.268,6.084,0.258,7.503c-2.046,1.346-22.861,17.607-26.143,18.787 c-3.208,1.18-52.065,2.876-60.509,4.812c0,0-137.408,32.78-145.244,30.918c-6.896-1.678-14.233-45.667-14.565-79.462 C734.842,531.581,739.618,418.804,774.205,417.439z"></path> <path fill-rule="evenodd" clip-rule="evenodd" fill="#8853AD" d="M788.401,400.681c0,0-19.211,4.646-38.901,27.231 c-17.883,20.483-28.116,134.495-28.116,134.495l62.592,9.439l4.443-55.125C814.434,476.566,820.702,428.667,788.401,400.681z"></path> <rect x="1008.018" y="469.707" fill-rule="evenodd" clip-rule="evenodd" fill="#133D7A" width="114.362" height="39.528"></rect> <path fill-rule="evenodd" clip-rule="evenodd" fill="#EABE00" d="M1009.05,447.731c-6.858-3.208-11.431-9.145-11.431-18.068v-2.803 c-1.346-77.36-69.321-99.06-74.834-184.661c-0.424-6.435-0.369-12.685,0.147-18.806c10.638-64.915,72.327-108.518,141.667-108.518 c79.001,0,148.102,56.601,143.05,136.883c-5.235,83.029-70.022,104.084-71.313,179.14c0,8.13-8.684,17.496-16.077,16.833H1009.05z"></path> <path fill-rule="evenodd" clip-rule="evenodd" fill="#25529B" d="M1126.492,518.343c-0.848,8.702-8.241,15.561-17.146,15.561 h-13.164l-5.144,8.37c-2.95,4.831-4.701,5.125-10.343,5.125h-30.974c-5.679,0-7.412-0.295-10.361-5.125l-5.126-8.37h-13.2 c-8.776,0-16.077-6.674-17.091-15.21v-6.029c0.461-1.954,2.268-3.429,4.332-3.429h113.847c2.102,0,3.89,1.475,4.333,3.484 c0.036,0.166-0.074,0.535,0.036,0.608V518.343L1126.492,518.343z M1009.899,478.76h110.619c3.319,0,6.048,2.729,6.048,6.065v9.439 c0,3.319-2.729,6.084-6.048,6.084h-110.619c-3.337,0-6.065-2.766-6.065-6.084v-9.439 C1003.833,481.488,1006.562,478.76,1009.899,478.76L1009.899,478.76z M1010.138,447.731h110.122c3.467,0,6.306,2.876,6.306,6.342 v9.808c0,3.466-2.839,6.305-6.306,6.305h-110.122c-3.466,0-6.305-2.839-6.305-6.305v-9.808 C1003.833,450.607,1006.672,447.731,1010.138,447.731z"></path> <path fill-rule="evenodd" clip-rule="evenodd" fill="#FFFFFF" d="M1047.731,447.731l-11.726-141.63h-16.962 c-7.338,0-13.975-3.005-18.787-7.817l0,0c-4.812-4.849-7.835-11.504-7.835-18.805c0-7.329,3.023-13.994,7.835-18.814 c4.813-4.821,11.449-7.808,18.787-7.808c7.227,0,13.532,2.895,18.197,7.578c4.738,4.729,7.798,11.329,8.425,18.529l1.31,15.191 h51.898l1.328-15.191c0.608-7.181,3.688-13.781,8.426-18.529c4.664-4.683,10.933-7.578,18.16-7.578 c7.337,0,13.975,3.005,18.805,7.826l0.019-0.018c4.812,4.821,7.799,11.486,7.799,18.814c0,7.338-2.987,13.994-7.799,18.805 c-4.812,4.812-11.486,7.817-18.823,7.817h-16.962l-11.708,141.63h-11.928l11.633-141.63h-49.797l11.652,141.63H1047.731 L1047.731,447.731z M1034.991,294.153l-1.254-14.159c-0.368-4.388-2.175-8.324-4.959-11.117c-2.508-2.507-5.863-4.065-9.734-4.065 c-4.02,0-7.67,1.65-10.324,4.305c-2.692,2.664-4.333,6.342-4.333,10.361c0,4.056,1.641,7.725,4.296,10.361h0.037 c2.654,2.636,6.305,4.314,10.324,4.314H1034.991L1034.991,294.153z M1110.858,294.153h15.93c4.056,0,7.706-1.678,10.361-4.314 c2.654-2.655,4.313-6.324,4.313-10.361c0-4.019-1.659-7.697-4.313-10.361v-0.019c-2.655-2.636-6.306-4.287-10.361-4.287 c-3.835,0-7.19,1.558-9.698,4.065c-2.803,2.812-4.591,6.748-4.978,11.117L1110.858,294.153z"></path> <path fill-rule="evenodd" clip-rule="evenodd" fill="#FFFFFF" d="M1116.684,164.636c-3.798-1.595-5.568-5.974-3.982-9.771 c1.622-3.798,5.992-5.568,9.79-3.973c3.097,1.318,6.028,2.71,8.775,4.194c2.857,1.54,5.66,3.208,8.352,4.987 c3.43,2.295,4.388,6.914,2.103,10.361c-2.269,3.448-6.914,4.378-10.344,2.111c-2.305-1.54-4.701-2.959-7.189-4.295 C1121.68,166.895,1119.172,165.687,1116.684,164.636L1116.684,164.636z M1149.556,188.475c-2.71-3.116-2.378-7.845,0.72-10.564 c3.134-2.71,7.835-2.378,10.545,0.737c7.91,9.099,14.233,19.543,18.548,31.01c4.166,11.053,6.435,22.936,6.435,35.334 c0,4.121-3.355,7.476-7.504,7.476c-4.13,0-7.485-3.355-7.485-7.476c0-10.62-1.899-20.741-5.438-30.079 C1161.724,205.197,1156.323,196.273,1149.556,188.475z"></path> <path fill-rule="evenodd" clip-rule="evenodd" fill="#25529B" d="M1519.506,1253.117c0,0-15.801,21.755-43.253,36.892 c-28.355,15.634-61.08,23.138-40.8,30.218c20.299,7.08,49.963,12.574,78.872,4.186c20.316-5.9,44.137-7.154,50.405-16.723 c6.269-9.605-14.971-35.933-9.292-71.958C1560.011,1206.915,1519.506,1253.117,1519.506,1253.117z"></path> <path fill-rule="evenodd" clip-rule="evenodd" fill="#281338" d="M1622.696,948.986c0,0-114.418-8.979-146.387-3.43 c-31.969,5.568-102.084,5.531-56.232,134.938c35.971,101.438,80.348,197.678,80.348,197.678 c23.856,5.862,41.04,22.29,71.497,17.552c0,0-38.403-227.509-69.47-260.215c24.816,4.074,70.392,12.058,133.592,30.144 c117.184,33.481,164.271,16.722,164.271,16.722l17.478-61.172L1622.696,948.986z"></path> <rect x="703.482" y="868.64" fill-rule="evenodd" clip-rule="evenodd" fill="#25529B" width="95.76" height="11.117"></rect> <rect x="1309.937" y="868.64" fill-rule="evenodd" clip-rule="evenodd" fill="#223F81" width="95.76" height="11.117"></rect> <rect x="1309.937" y="868.64" fill-rule="evenodd" clip-rule="evenodd" fill="#25529B" width="95.76" height="11.117"></rect> <polygon fill-rule="evenodd" clip-rule="evenodd" fill="#0B5396" points="1276.382,591.389 1393.455,589.988 1431.49,793.603 1319.966,824.687 "></polygon> <polygon fill-rule="evenodd" clip-rule="evenodd" fill="#0B5396" points="832.796,591.389 715.724,589.988 677.708,793.603 789.212,824.687 "></polygon> <polygon fill-rule="evenodd" clip-rule="evenodd" fill="#E0E8F5" points="1285.379,598.764 1325.829,815.266 1422.879,788.237 1387.242,597.547 "></polygon> <polygon fill-rule="evenodd" clip-rule="evenodd" fill="#E0E8F5" points="823.799,598.764 783.349,815.266 686.299,788.237 721.918,597.547 "></polygon> <polygon fill-rule="evenodd" clip-rule="evenodd" fill="#223F81" points="1309.937,879.757 1337.112,879.757 1337.112,819.893 1319.966,824.687 1309.937,770.98 "></polygon> <polygon fill-rule="evenodd" clip-rule="evenodd" fill="#25529B" points="799.242,879.757 772.084,879.757 772.084,819.893 789.212,824.687 799.242,770.98 "></polygon> <polygon fill-rule="evenodd" clip-rule="evenodd" fill="#25529B" points="1309.937,879.757 1337.112,879.757 1337.112,819.893 1319.966,824.687 1309.937,770.98 "></polygon> <path fill-rule="evenodd" clip-rule="evenodd" fill="#C4D1EB" d="M1120.703,1326.532c467.185,0,845.929,21.018,845.929,46.939 c0,25.94-378.744,46.939-845.929,46.939c-467.184,0-845.946-20.999-845.946-46.939 C274.756,1347.55,653.519,1326.532,1120.703,1326.532z"></path> <path fill-rule="evenodd" clip-rule="evenodd" fill="#9C7357" d="M1460.859,903.835H615.945c-3.614,0-6.527-4.314-6.527-9.643 v-4.812c0-5.328,2.913-9.624,6.527-9.624h844.914c3.577,0,6.526,4.296,6.526,9.624v4.812 C1467.385,899.521,1464.436,903.835,1460.859,903.835z"></path> <path fill-rule="evenodd" clip-rule="evenodd" fill="#F9AF79" d="M432.279,572.897c-8.555,30.218,12.389,61.357,35.435,67.902 c23.083,6.545,39.491-13.994,48.101-44.211c8.573-30.218-3.189-60.011-26.235-66.556 C466.497,523.469,440.852,542.68,432.279,572.897z"></path> <path fill-rule="evenodd" clip-rule="evenodd" fill="#F9AF79" d="M561.575,1158.427c0,0-59.089,91.796-67.072,95.797 c-7.983,4-27.932,4.978-20.446,19.948c7.485,14.952,10.472,73.82,17.441,76.825c6.988,3.005,66.852,9.975,57.891,0 c-8.997-9.974-14.51-4.978-19.063-22.953c-4.499-17.939-10.877-51.899-2.415-58.868c8.499-6.97,60.38-69.82,60.38-69.82 L561.575,1158.427z"></path> <path fill-rule="evenodd" clip-rule="evenodd" fill="#F9AF79" d="M859.05,1197.862c0,0,71.829,118.4,85.14,129.038 c13.312,10.638,57.191,26.623,21.313,29.277c-35.952,2.674-53.245-11.965-75.867-18.64c-22.622-6.637-50.553-10.638-39.916-27.949 c10.656-17.275,6.231-55.034-16.704-78.983C810.045,1206.656,859.05,1197.862,859.05,1197.862z"></path> <path fill-rule="evenodd" clip-rule="evenodd" fill="#281338" d="M492.419,923.285c0,0,177.858-4.646,248.36,53.209 c41.243,62.537,141.022,247.032,148.766,267.35c-5.31,5.347-35.251,14.952-48.563,13.605 c-39.233-46.792-91.113-87.242-111.763-123.949c-25.406-45.262-33.223-67.847-74.484-71.848 c-41.243-4-134.366-17.312-162.316-17.312C464.488,1044.341,492.419,923.285,492.419,923.285z"></path> <polygon fill-rule="evenodd" clip-rule="evenodd" fill="#9C7357" points="337.349,1369.342 346.659,1369.342 413.51,1077.563 393.009,1077.563 "></polygon> <polygon fill-rule="evenodd" clip-rule="evenodd" fill="#9C7357" points="616.59,1356.491 607.243,1356.491 530.583,1067.736 551.084,1067.736 "></polygon> <path fill-rule="evenodd" clip-rule="evenodd" fill="#3C0A59" d="M391.11,911.117l103.393,17.847c0,0,137.408,1.254,200.204,12.942 c57.153,10.639,65.561,75.591,0,165.008c-37.242,50.738-68.732,91.262-133.131,136.93c-16.39-12.003-22.622-16.575-27.157-45.521 c4.646-6.379,16.704-46.35,20.446-54.204c35.638-74.428,83.168-101.493,83.832-108.831c-7.964-12.979-211.431,67.589-251.9,20.207 C348.171,1010.232,391.11,911.117,391.11,911.117z"></path> <path fill-rule="evenodd" clip-rule="evenodd" fill="#6E2B90" d="M386.795,677.027c27.25-3.835,54.978,1.346,80.918,20.133 c22.677,23.101,48.323,61.21,46.737,124.061c-2.009,79.793,12.334,84.938-2.6,106.896 c-62.426,25.756-169.193,136.505-144.045,17.772c18.197-85.951-39.915-150.037,6.951-245.41 C378.591,692.717,383.348,685.195,386.795,677.027z"></path> <path fill-rule="evenodd" clip-rule="evenodd" fill="#8853AD" d="M514.469,851.272c1.217,41.593,7.098,53.835,2.581,66.888 c-25.424,2.6-71.977,12.795-83.628,29.074c-13.274,18.621-26.585,21.313-20.391,7.56c6.231-13.772,22.604-33.278-2.655-100.24 s-37.242-112.205-12.408-158.776L514.469,851.272z"></path> <path fill-rule="evenodd" clip-rule="evenodd" fill="#F9AF79" d="M386.795,677.027c16.777-39.712,20.889-84.292,20.889-84.292 l43.916,12.961c0,0-24.926,55.863-1.014,75.83c5.107,4.222,11.007,9.384,17.127,15.634 C441.773,678.373,414.045,673.192,386.795,677.027z"></path> <path fill-rule="evenodd" clip-rule="evenodd" fill="#E3802F" d="M406.394,603.299c2.582-2.323,5.826-5.199,9.255-8.223 l35.804,10.583l0.074,0.184c-0.867,1.991-9.975,23.267-11.191,43.732c-10.675-6.471-22.345-17.036-35.693-35.472 C405.361,610.01,405.915,606.36,406.394,603.299z"></path> <path fill-rule="evenodd" clip-rule="evenodd" fill="#9C7357" d="M440.944,1088.017c2.803,0,5.679,0,8.628-0.073 c36.763-0.922,61.781-6.011,81.877-10.085c23.801-4.83,36.91-7.522,52.341-0.11c5.181,2.452,11.431,0.258,13.938-4.941 c2.471-5.218,0.258-11.449-4.941-13.938c-21.755-10.381-40.1-6.675-65.487-1.513c-19.303,3.928-43.326,8.813-78.245,9.68 c-39.307,0.959-63.349-4.904-75.646-18.548c-10.97-12.186-14.178-32.467-10.159-63.809c1.364-10.638,2.729-19.469,3.945-27.25 c3.374-21.902,5.605-36.356,2.839-58.628c-2.563-20.76-9.458-48.488-25.406-102.25c-1.659-5.53-7.467-8.665-12.979-7.006 c-5.549,1.623-8.702,7.448-7.08,12.979c29.868,100.554,28.355,110.362,21.958,151.679c-1.235,7.909-2.6,16.906-4,27.802 c-4.904,37.869,0,63.441,15.376,80.495C373.724,1080.034,399.535,1088.017,440.944,1088.017z"></path> <path fill-rule="evenodd" clip-rule="evenodd" fill="#25529B" d="M854.146,1297.642c47.677,23.322,73.341,36.671,88.625,35.417 c3.613-0.332,6.6-0.683,9.126-1.051c16.999,10.048,44.138,21.884,13.606,24.17c-35.952,2.674-53.245-11.965-75.867-18.64 c-22.622-6.637-50.553-10.638-39.916-27.949C851.768,1306.288,853.261,1302.232,854.146,1297.642z"></path> <path fill-rule="evenodd" clip-rule="evenodd" fill="#25529B" d="M489.285,1256.159c1.18,37.739,6.379,75.147,29.462,82.228 c6.103,1.862,11.689,2.12,16.611,1.456c3.65,4.48,8.094,4.554,14.03,11.154c8.96,9.975-50.903,3.005-57.891,0 c-6.969-3.005-9.956-61.873-17.441-76.825C467.917,1261.893,480.288,1259.017,489.285,1256.159z"></path> <path fill-rule="evenodd" clip-rule="evenodd" fill="#F1944E" d="M641.24,853.281c30.604-0.461,60.951-18.676,76.033-16.021 c15.044,2.655,64.307,36.8,58.075,38.127c-6.195,1.347-45.225-18.879-46.571-19.211c-1.309-0.313-9.734,14.03-30.605,19.285 c-20.815,5.236-0.129-15.635-64.75,3.872C591.424,892.017,641.24,853.281,641.24,853.281z"></path> <path fill-rule="evenodd" clip-rule="evenodd" fill="#A27AC1" d="M391.313,640.799l-4.517,36.228c0,0,39.621,2.341,59.311,13.44 c19.69,11.08,48.784,43.104,48.784,43.104l-23.747-40.892l-3.429-26.162L391.313,640.799z"></path> <path fill-rule="evenodd" clip-rule="evenodd" fill="#A27AC1" d="M408.164,685.158c29.425-5.531,43.013,20.833,62.095,63.846 c19.063,43.013,51.604,95.262,58.075,102.01c6.472,6.711,109.108,0,109.108,0s3.097,29.684,0,33.26 c-3.098,3.54-20.852,3.098-20.852,3.098s-7.098,5.66-13.753,10.14c-6.638,4.499-62.961,12.925-89.104,11.579 c-26.199-1.328-50.148-3.54-53.688-7.56c-3.54-3.982-74.927-113.938-79.388-153.411 C376.231,708.646,393.156,687.96,408.164,685.158z"></path> <path fill-rule="evenodd" clip-rule="evenodd" fill="#25529B" d="M494.89,504.221c55.642,2.655,46.903,86.32,46.903,86.32 s-14.454,4.462-44.69-0.516c2.286-8.997,1.309-31.932,1.309-31.932s-3.521,18.621-7.983,29.941 c-9.808,4.499-16.04,12.389-20.169,21.682c-2.507,5.604-12.224,59.108-14.934,64.178l-90.93-1.419 C428.813,608.609,354.07,485.563,494.89,504.221z"></path> <path fill-rule="evenodd" clip-rule="evenodd" fill="#25529B" d="M1479.665,1299.577c0,0-15.782,21.756-43.253,36.892 c-28.355,15.635-61.099,23.139-40.781,30.218c20.28,7.08,49.944,12.593,78.872,4.186c20.299-5.899,44.1-7.153,50.405-16.722 c6.269-9.605-7.411-33.666-1.732-69.673C1527.748,1255.643,1479.665,1299.577,1479.665,1299.577z"></path> <path fill-rule="evenodd" clip-rule="evenodd" fill="#3C0A59" d="M1647.032,949.761c0,0-148.709-5.531-180.679,0 c-31.969,5.567-102.065,5.531-56.194,134.956c35.914,101.438,47.787,229.868,47.787,229.868l71.479,17.57 c0,0-2.84-230.975-36.947-292.442c24.834,4.074,70.409,12.076,133.61,30.145c117.184,33.536,181.453,16.74,181.453,16.74 l17.441-61.173L1647.032,949.761z"></path> <polygon fill-rule="evenodd" clip-rule="evenodd" fill="#F9AF79" points="1771.204,565.854 1807.542,673.211 1761.634,703.447 1735.621,610.674 "></polygon> <path fill-rule="evenodd" clip-rule="evenodd" fill="#E3802F" d="M1757.542,688.771l-21.921-78.098l35.583-44.819l13.292,39.251 C1779.923,640.597,1768.825,669.911,1757.542,688.771z"></path> <path fill-rule="evenodd" clip-rule="evenodd" fill="#F9AF79" d="M1678.522,584.015c-1.18,32.651,14.86,60.915,40.357,63.44 c25.48,2.507,48.766-21.811,51.974-54.333c3.208-32.522-14.879-60.915-40.376-63.422 C1704.997,527.193,1680.384,532.502,1678.522,584.015z"></path> <path fill-rule="evenodd" clip-rule="evenodd" fill="#6E2B90" d="M1824.983,670.077c111.523,75.333,42.164,197.014,17.681,285.99 c-20.87,75.774-20.188,121.534-23.304,121.534c-3.116,0-79.85-11.468-123.618-51.088c-43.769-39.603-73.378-77.95-73.378-77.95 s56.104-9.975,74.41-82.541c9.329-36.837,5.089-56.822,26.291-115.192C1744.286,692.459,1824.983,670.077,1824.983,670.077z"></path> <path fill-rule="evenodd" clip-rule="evenodd" fill="#A27AC1" d="M1824.983,670.077l-11.947-29.222 c0,0-37.869,25.019-52.986,36.818c-15.1,11.836-24.429,14.602-24.429,14.602s-5.476,41.888-1.899,38.09 C1778.412,682.466,1824.983,670.077,1824.983,670.077z"></path> <polygon fill-rule="evenodd" clip-rule="evenodd" fill="#9C7357" points="1874.43,1386.358 1864.659,1386.358 1794.838,1095.023 1816.281,1095.023 "></polygon> <polygon fill-rule="evenodd" clip-rule="evenodd" fill="#9C7357" points="1582.707,1386.358 1592.459,1386.358 1672.585,1084.717 1651.163,1084.717 "></polygon> <path fill-rule="evenodd" clip-rule="evenodd" fill="#9C7357" d="M1765.949,1105.919c38.993,0,63.698-7.006,79.48-22.382 c19.562-19.027,23.599-48.544,23.654-86.984c0.129-80.789,4.608-97.493,27.341-146.848c2.526-5.476,0.129-11.966-5.328-14.473 c-5.494-2.526-11.983-0.147-14.491,5.347c-24.041,52.157-29.203,71.313-29.351,155.974c-0.074,38.957-4.996,59.643-17.072,71.368 c-12.353,12.039-34.717,17.018-72.475,16.059c-36.468-0.866-61.561-6.011-81.729-10.085c-26.513-5.42-45.687-9.311-68.419,1.586 c-5.438,2.563-7.743,9.089-5.144,14.527c2.618,5.457,9.107,7.726,14.547,5.162c16.15-7.743,29.83-4.959,54.683,0.111 c21,4.296,47.143,9.568,85.527,10.527C1760.16,1105.882,1763.073,1105.919,1765.949,1105.919z"></path> <path fill-rule="evenodd" clip-rule="evenodd" fill="#8853AD" d="M1820.853,779.738c0,0-27.784,84.771-62.187,119.875 c-34.403,35.066-103.633,46.865-125.296,45.52c17.275-6.95,50.185-26.715,63.403-79.111c9.329-36.837,5.089-56.822,26.291-115.192 c15.764-43.326,64.271-66.833,88.238-76.051c-29.923,21.479-67.294,56.858-78.799,83.776 C1719.747,788.439,1820.853,779.738,1820.853,779.738z"></path> <path fill-rule="evenodd" clip-rule="evenodd" fill="#F9AF79" d="M1437.223,854.148c0,0-47.936-21.885-53.152-19.801 c-5.218,2.083-58.353,34.181-58.353,39.491c0,5.328,46.903-19.838,46.903-19.838s-5.236,13.938-2.102,20.575 c3.115,6.674,39.195,6.674,71.699,4.591C1474.742,877.083,1437.223,854.148,1437.223,854.148z"></path> <path fill-rule="evenodd" clip-rule="evenodd" fill="#6E2B90" d="M1819.323,714.232c44.192,90.598-107.394,182.431-197.364,190.58 c-89.935,8.186-196.793-21.258-196.793-21.258l12.058-29.406c0,0,180.2-23.525,184.735-26.807 C1626.531,824.06,1803.135,681.065,1819.323,714.232z"></path> <path fill-rule="evenodd" clip-rule="evenodd" fill="#3C0A59" d="M658.865,903.835h25.516v462.022h-25.516V903.835L658.865,903.835 z M1392.385,903.835h25.517v462.022h-25.517V903.835z"></path> <path fill-rule="evenodd" clip-rule="evenodd" fill="#25529B" d="M1779.131,498.745c14.951,14.473,39.768,47.124,5.364,123.949 l-14.233-41.74l-7.725-0.369c-28.005,2.563-21.884-29.683-21.921-29.757c-2.212-7.412-7.891-7.928-19.47-4.572 c-26.695,7.78-93.879,34.587-68.731-53.706C1675.387,519.929,1727.158,470.887,1779.131,498.745z"></path> <path fill-rule="evenodd" clip-rule="evenodd" fill="#F9AF79" d="M1766.317,551.197c6.14,0,11.1,7.928,11.1,17.718 c0,9.79-4.96,17.736-11.1,17.736c-6.121,0-11.099-7.946-11.099-17.736C1755.218,559.125,1760.196,551.197,1766.317,551.197z"></path> </g> </svg> 